Coordinates
version=1
nRows=16
nColumns=40
inDegrees=yes

Units are S.I. units (second, meters, Newtons, ...)
Angles are in degrees.

endheader
time	pelvis_tilt	pelvis_list	pelvis_rotation	pelvis_tx	pelvis_ty	pelvis_tz	hip_flexion_r	hip_adduction_r	hip_rotation_r	knee_angle_r	knee_angle_r_beta	ankle_angle_r	subtalar_angle_r	mtp_angle_r	hip_flexion_l	hip_adduction_l	hip_rotation_l	knee_angle_l	knee_angle_l_beta	ankle_angle_l	subtalar_angle_l	mtp_angle_l	lumbar_extension	lumbar_bending	lumbar_rotation	arm_flex_r	arm_add_r	arm_rot_r	elbow_flex_r	pro_sup_r	wrist_flex_r	wrist_dev_r	arm_flex_l	arm_add_l	arm_rot_l	elbow_flex_l	pro_sup_l	wrist_flex_l	wrist_dev_l
     56.87792857	     -5.20622965	     -3.61567281	     -4.24658528	      0.81340608	      0.92688985	      0.40350874	     27.59906874	     -0.31569439	    -13.23620456	     11.62942239	     11.62942239	      5.53684622	      3.20821534	      6.05860109	      5.38511222	     -3.87946014	    -10.43913005	     15.79683129	     15.79683129	     15.90107603	    -10.30109744	     -4.70385636	     -9.64278312	      3.90654381	      2.48612764	    -12.79290576	    -15.38271512	    -10.82916767	     21.19040290	     47.80204459	      0.00000000	      0.00000000	     16.16578732	    -17.72407022	    -15.68548883	     76.63653413	     47.64141430	      0.00000000	      0.00000000
     56.89085714	     -5.07272787	     -3.68310295	     -4.24364323	      0.81519923	      0.92635906	      0.40535506	     27.02461020	     -0.01203845	    -13.52518858	     10.39784436	     10.39784436	      5.03029671	      4.24631009	      6.73162926	      4.33290947	     -4.00794522	    -10.70990448	     15.22615746	     15.22615746	     16.19851886	     -9.70597789	     -4.82064130	     -9.71477305	      3.94657828	      2.64672395	    -13.95492213	    -15.18633005	    -11.13321837	     21.52348024	     47.78695279	      0.00000000	      0.00000000	     16.33196428	    -17.48030809	    -15.67496659	     77.49926230	     47.66264157	      0.00000000	      0.00000000
     56.90378571	     -5.15070395	     -3.63617760	     -4.12536545	      0.81693957	      0.92513948	      0.40715424	     27.10659306	      0.01830736	    -13.57961444	     10.37408445	     10.37408445	      4.67400375	      4.31901340	      6.87316140	      3.77122291	     -4.04248737	    -10.65945661	     15.09208907	     15.09208907	     16.54631367	     -9.55272198	     -4.94309424	     -9.50227323	      3.88558450	      2.34609548	    -14.77732427	    -15.01385420	    -11.20139901	     21.38705012	     47.78697226	      0.00000000	      0.00000000	     16.36993485	    -17.62675994	    -15.75006598	     77.65026656	     47.67207787	      0.00000000	      0.00000000
     56.91671429	     -5.01107500	     -3.60932563	     -4.07017417	      0.81910451	      0.92429131	      0.40913396	     26.82233970	      0.05862878	    -13.56604927	     10.50167806	     10.50167806	      4.12226675	      4.30893618	      6.72528559	      2.67350015	     -4.09026462	    -11.05228382	     14.47717278	     14.47717278	     16.95842380	     -8.62659420	     -4.95577785	     -9.54757618	      3.80855337	      2.45772368	    -15.79152279	    -14.74372790	    -11.58563969	     22.11839831	     47.75805490	      0.00000000	      0.00000000	     16.34773401	    -17.41878425	    -15.69402946	     78.36034987	     47.68890385	      0.00000000	      0.00000000
     56.92964286	     -4.99092806	     -3.67538102	     -3.91777466	      0.82136799	      0.92297404	      0.41123408	     26.63382487	      0.17581878	    -13.38592587	     10.83962822	     10.83962822	      2.87548553	      3.46160097	      4.60010932	      2.02437947	     -4.35139835	    -11.38445925	     14.53177847	     14.53177847	     17.90000856	     -7.58518937	     -4.37070781	     -9.41376544	      3.90282525	      2.56144391	    -17.14748956	    -14.36585291	    -12.71667297	     24.16087840	     47.67073526	      0.00000000	      0.00000000	     16.37030294	    -17.34872312	    -15.36522775	     78.57475832	     47.70563062	      0.00000000	      0.00000000
     56.94257143	     -4.89051584	     -3.65307289	     -3.73391384	      0.82384403	      0.92178295	      0.41319031	     26.49966588	      0.08239674	    -13.40118631	     11.76576634	     11.76576634	      2.41990147	      2.80763296	      4.27847337	      1.14145788	     -4.40145321	    -11.35517184	     14.23361971	     14.23361971	     18.27717639	     -7.33266648	     -4.28946571	     -9.28619397	      3.90040658	      2.40388897	    -17.47387666	    -14.14859192	    -12.76170375	     24.01071993	     47.66658163	      0.00000000	      0.00000000	     16.21116656	    -17.19589878	    -15.29014443	     78.46408330	     47.70197209	      0.00000000	      0.00000000
     56.95550000	     -4.81861316	     -3.67050888	     -3.53167399	      0.82650478	      0.92043119	      0.41536730	     26.24838051	      0.13475020	    -12.92481493	     12.49324432	     12.49324432	      1.07857675	      1.07626488	      1.70907943	      0.41867006	     -4.57990938	    -11.41100756	     14.26900061	     14.26900061	     19.18399843	     -6.66868558	     -3.33055185	     -9.11033743	      3.95764200	      2.35691924	    -17.70482312	    -13.77515656	    -13.03271279	     23.90354751	     47.63173493	      0.00000000	      0.00000000	     16.07495601	    -17.00983215	    -15.02542515	     78.17057092	     47.70275161	      0.00000000	      0.00000000
     56.96842857	     -4.71447426	     -3.66970925	     -3.32704758	      0.82927736	      0.91914253	      0.41747989	     26.14323940	      0.02246797	    -12.98667866	     13.77551537	     13.77551537	      0.74405314	      0.28850399	      1.09636089	     -0.35738224	     -4.70928124	    -11.30656408	     14.21926334	     14.21926334	     19.61501025	     -6.45858107	     -3.18302570	     -8.98096622	      4.02490213	      2.20393845	    -17.67410382	    -13.48716485	    -13.04467030	     23.89215883	     47.61950303	      0.00000000	      0.00000000	     15.73015910	    -16.81351593	    -14.93561586	     77.93022750	     47.69538282	      0.00000000	      0.00000000
     56.98135714	     -4.60568173	     -3.72470716	     -3.11862337	      0.83213594	      0.91792561	      0.41980467	     25.87318556	      0.09067010	    -12.69273651	     14.71892486	     14.71892486	     -0.34253323	     -1.38083390	     -1.52906677	     -0.94063730	     -4.97900403	    -11.26175054	     14.62063316	     14.62063316	     20.59371265	     -6.02721343	     -1.88570435	     -8.82035149	      4.15702914	      2.15277973	    -17.40876616	    -13.20403102	    -13.02819554	     23.61412437	     47.56453712	      0.00000000	      0.00000000	     15.39600725	    -16.54134447	    -14.77617946	     77.38857806	     47.69942415	      0.00000000	      0.00000000
     56.99428571	     -4.46677647	     -3.86532769	     -2.91259786	      0.83504975	      0.91712223	      0.42214854	     25.46992988	      0.18561880	    -12.92145597	     15.58799116	     15.58799116	     -0.40425648	     -1.81947991	     -1.68999895	     -1.58205410	     -5.31518342	    -11.04998920	     14.90075274	     14.90075274	     20.81950529	     -6.13892526	     -1.93384057	     -8.74918932	      4.39068615	      2.18824278	    -17.06925192	    -12.81927591	    -12.97128094	     23.71996237	     47.55461099	      0.00000000	      0.00000000	     14.78815574	    -16.07822141	    -14.60377670	     77.10196628	     47.67928267	      0.00000000	      0.00000000
     57.00721429	     -4.41493090	     -3.84725883	     -2.75199338	      0.83766989	      0.91604423	      0.42465818	     25.62198827	      0.16579392	    -12.43738078	     17.20717384	     17.20717384	     -0.48198346	     -3.56783369	     -3.07680646	     -1.73438111	     -5.56643721	    -10.74542642	     15.92554880	     15.92554880	     21.37808798	     -6.46581645	     -1.18565364	     -8.56416308	      4.47407007	      2.07144400	    -16.30589541	    -12.70059054	    -12.56370622	     23.29015658	     47.49474321	      0.00000000	      0.00000000	     14.44717556	    -15.85252460	    -14.61264029	     76.00217470	     47.67690603	      0.00000000	      0.00000000
     57.02014286	     -4.32647041	     -3.91705567	     -2.58920130	      0.84026751	      0.91550284	      0.42724590	     25.50364612	      0.22661484	    -12.40757461	     18.41971507	     18.41971507	     -0.12921752	     -4.28087434	     -3.49552783	     -1.80175619	     -5.93833504	    -10.39380061	     17.13591145	     17.13591145	     21.47174188	     -7.04162238	     -1.27661591	     -8.47160643	      4.64956159	      2.04523887	    -15.53457136	    -12.48947300	    -12.41308984	     23.44171447	     47.47064292	      0.00000000	      0.00000000	     13.77686584	    -15.49050829	    -14.49406881	     75.29112023	     47.65566233	      0.00000000	      0.00000000
     57.03307143	     -4.17428425	     -4.01371229	     -2.44706907	      0.84273424	      0.91541601	      0.42992948	     25.24415123	      0.35241885	    -12.38545638	     19.46329938	     19.46329938	      0.39602386	     -4.85878750	     -3.86388580	     -1.72258196	     -6.37242684	    -10.01056364	     18.72104209	     18.72104209	     21.37346941	     -7.84354009	     -1.44483661	     -8.50743618	      4.85144362	      2.09603687	    -14.58993848	    -12.30345752	    -12.24315998	     23.61353254	     47.44961253	      0.00000000	      0.00000000	     13.12468687	    -15.09082647	    -14.39961546	     74.44163412	     47.63227716	      0.00000000	      0.00000000
     57.04600000	     -4.13229446	     -4.08822094	     -2.31430824	      0.84494617	      0.91552554	      0.43265881	     25.04012914	      0.48639277	    -12.33577001	     20.33151038	     20.33151038	      0.98612235	     -5.30502147	     -4.14370915	     -1.21751505	     -6.82251384	     -9.50261393	     20.81341927	     20.81341927	     21.03560617	     -8.95411199	     -1.75965974	     -8.42828626	      5.02378282	      2.10622063	    -13.44015609	    -12.13129451	    -11.98147530	     23.75890611	     47.42210387	      0.00000000	      0.00000000	     12.39538104	    -14.61423467	    -14.35014257	     73.20790123	     47.60519463	      0.00000000	      0.00000000
     57.05892857	     -4.09003973	     -4.14099206	     -2.19804704	      0.84692528	      0.91600668	      0.43543529	     24.74270619	      0.61998749	    -12.36163158	     20.99059352	     20.99059352	      1.67937957	     -5.49233925	     -4.30060531	     -0.47633054	     -7.26227056	     -8.95790231	     23.26745585	     23.26745585	     20.35712451	    -10.32494983	     -2.27249579	     -8.38636222	      5.17192057	      2.11796921	    -12.11608892	    -12.02553965	    -11.60360753	     23.88677850	     47.38450518	      0.00000000	      0.00000000	     11.69635536	    -14.08730104	    -14.37995778	     71.64253228	     47.57862348	      0.00000000	      0.00000000
     57.07185714	     -3.90868588	     -4.27013410	     -2.04361561	      0.84877710	      0.91692210	      0.43817630	     24.16899573	      0.81944169	    -12.53221061	     21.42230366	     21.42230366	      2.40790486	     -5.42475646	     -4.49414949	      0.38198101	     -7.82212350	     -8.42221415	     26.17506553	     26.17506553	     19.51285202	    -11.67893744	     -2.77487064	     -8.55083295	      5.37898334	      2.19288638	    -10.75511741	    -11.92718892	    -11.35500926	     24.23370821	     47.35385400	      0.00000000	      0.00000000	     10.96846068	    -13.56976382	    -14.31302016	     70.37580461	     47.54870355	      0.00000000	      0.00000000
